# xmcd
#
# Track frame offsets: 
#        150
#        17137
#        30505
#        60219
#        79196
#        99756
#        119656
#        138216
#        171239
#        189064
#        206253
#
# Disc length: 3253 seconds
#
# Revision: 0
# Processed by: cddbd v1.5.2PL0 Copyright (c) Steve Scherf et al.
# Submitted via: ExactAudioCopy v0.95b4
#
DISCID=7d0cb30b
DTITLE=The Teague Stefan Band - Hard Eight
DYEAR=2006
DGENRE=Blues
TTITLE0=Crawl To You
TTITLE1=Dance With Me
TTITLE2=A Broken Word
TTITLE3=Ride All Night
TTITLE4=Victoria
TTITLE5=Carl Perkins
TTITLE6=Sweet Angel
TTITLE7=Love's A Gamble
TTITLE8=Believe In Me
TTITLE9=Why I Love You
TTITLE10=Taxman
EXTD=
EXTT0=
EXTT1=
EXTT2=
EXTT3=
EXTT4=
EXTT5=
EXTT6=
EXTT7=
EXTT8=
EXTT9=
EXTT10=
PLAYORDER=
